<?xml version="1.0" encoding="UTF-8" standalone="no"?>
<!-- Created with Inkscape (http://www.inkscape.org/) -->

<svg
   xmlns:dc="http://purl.org/dc/elements/1.1/"
   xmlns:cc="http://creativecommons.org/ns#"
   xmlns:rdf="http://www.w3.org/1999/02/22-rdf-syntax-ns#"
   xmlns:svg="http://www.w3.org/2000/svg"
   xmlns="http://www.w3.org/2000/svg"
   xmlns:sodipodi="http://sodipodi.sourceforge.net/DTD/sodipodi-0.dtd"
   xmlns:inkscape="http://www.inkscape.org/namespaces/inkscape"
   width="1600"
   height="1200"
   id="svg2"
   version="1.1"
   inkscape:version="0.91+devel r"
   viewBox="0 0 451.55557 338.66667"
   sodipodi:docname="10_YouTube_Flickr_Como_Usar.svg">
  <defs
     id="defs4">
    <clipPath
       clipPathUnits="userSpaceOnUse"
       id="clipPath7996">
      <path
         style="fill:#000080;fill-opacity:0.3121019;stroke:none"
         d="m 0,30.992875 0,225.982825 451.55557,0 0,-225.982825 -451.55557,0 z"
         id="path7998"
         inkscape:connector-curvature="0" />
    </clipPath>
    <clipPath
       clipPathUnits="userSpaceOnUse"
       id="clipPath88">
      <rect
         style="fill:#cccccc;fill-opacity:0.61783441;stroke:none;stroke-width:2.08068895"
         id="rect90"
         width="451.55557"
         height="218.59392"
         x="-1.4210855e-14"
         y="17.753969"
         rx="7.5601206e-06"
         ry="7.5601215e-06" />
    </clipPath>
    <clipPath
       clipPathUnits="userSpaceOnUse"
       id="clipPath348">
      <rect
         ry="7.5601124e-06"
         rx="7.5601124e-06"
         y="12.314741"
         x="5.5418186"
         height="178.77496"
         width="435.94223"
         id="rect350"
         style="opacity:1;fill:#f9f9f9;fill-opacity:1;stroke:none;stroke-width:0.74666667;stroke-linecap:round;stroke-linejoin:round;stroke-miterlimit:4;stroke-dasharray:none;stroke-dashoffset:45;stroke-opacity:1" />
    </clipPath>
    <clipPath
       clipPathUnits="userSpaceOnUse"
       id="clipPath27">
      <rect
         style="opacity:1;fill:#f9f9f9;fill-opacity:1;stroke:none;stroke-width:0.27482659;stroke-linecap:round;stroke-linejoin:round;stroke-miterlimit:4;stroke-dasharray:none;stroke-dashoffset:45;stroke-opacity:1"
         id="rect29"
         width="435.94223"
         height="24.219809"
         x="5.5418186"
         y="213.05171"
         rx="7.5601124e-06"
         ry="7.5601124e-06" />
    </clipPath>
    <clipPath
       id="clipPath3001"
       clipPathUnits="userSpaceOnUse">
      <path
         inkscape:connector-curvature="0"
         id="path3003"
         d="M 0,0 0,871 2088,871 2088,0 0,0 z" />
    </clipPath>
    <clipPath
       id="clipPath3007"
       clipPathUnits="userSpaceOnUse">
      <path
         inkscape:connector-curvature="0"
         id="path3009"
         d="m 2075.17,683.223 c 0,0 -12.16,85.351 -49.46,122.941 -47.31,49.328 -100.35,49.578 -124.67,52.461 -174.1,12.527 -435.27,12.527 -435.27,12.527 l -0.54,0 c 0,0 -261.18,0 -435.28,-12.527 -24.32,-2.883 -77.345,-3.133 -124.665,-52.461 -37.308,-37.59 -49.453,-122.941 -49.453,-122.941 0,0 -12.441,-100.231 -12.441,-200.469 l 0,-93.969 c 0,-100.226 12.441,-200.457 12.441,-200.457 0,0 12.145,-85.348 49.453,-122.9413 C 952.605,16.0469 1014.79,17.6172 1042.47,12.4492 1142.01,2.9375 1465.5,0 1465.5,0 c 0,0 261.44,0.390625 435.54,12.9141 24.32,2.8906 77.36,3.1328 124.67,52.4726 37.3,37.5933 49.46,122.9413 49.46,122.9413 0,0 12.43,100.231 12.43,200.457 l 0,93.969 c 0,100.238 -12.43,200.469 -12.43,200.469 z" />
    </clipPath>
    <linearGradient
       id="linearGradient3011"
       spreadMethod="pad"
       gradientTransform="matrix(0,-164.5226,-164.5226,0,1461.9071,-614.48539)"
       gradientUnits="userSpaceOnUse"
       y2="0"
       x2="1"
       y1="0"
       x1="0">
      <stop
         id="stop3013"
         offset="0"
         style="stop-opacity:1;stop-color:#e42526" />
      <stop
         id="stop3015"
         offset="1"
         style="stop-opacity:1;stop-color:#be1f26" />
    </linearGradient>
  </defs>
  <sodipodi:namedview
     id="base"
     pagecolor="#4b93a9"
     bordercolor="#666666"
     borderopacity="1.0"
     inkscape:pageopacity="1"
     inkscape:pageshadow="2"
     inkscape:zoom="0.45833333"
     inkscape:cx="458.41383"
     inkscape:cy="627.94697"
     inkscape:document-units="px"
     inkscape:current-layer="layer1"
     showgrid="false"
     units="px"
     inkscape:window-width="1358"
     inkscape:window-height="698"
     inkscape:window-x="0"
     inkscape:window-y="0"
     inkscape:window-maximized="1" />
  <metadata
     id="metadata7">
    <rdf:RDF>
      <cc:Work
         rdf:about="">
        <dc:format>image/svg+xml</dc:format>
        <dc:type
           rdf:resource="http://purl.org/dc/dcmitype/StillImage" />
        <dc:title />
      </cc:Work>
    </rdf:RDF>
  </metadata>
  <g
     inkscape:label="Camada 1"
     inkscape:groupmode="layer"
     id="layer1"
     transform="translate(0,41.666668)">
    <rect
       style="fill:#fefefe;fill-opacity:1;stroke:none"
       id="rect3370"
       width="451.55557"
       height="337.43515"
       x="-1.4210855e-14"
       y="-41.050896"
       rx="7.560121e-06"
       ry="7.5601224e-06" />
    <rect
       ry="7.5601215e-06"
       rx="7.560121e-06"
       y="-41.050896"
       x="-1.4210855e-14"
       height="50.492134"
       width="451.55557"
       id="rect4075"
       style="fill:#cccccc;fill-opacity:0.61783441;stroke:none" />
    <text
       xml:space="preserve"
       style="font-style:normal;font-variant:normal;font-weight:normal;font-stretch:normal;font-size:23.66460037px;line-height:125%;font-family:FreeMono;-inkscape-font-specification:FreeMono;letter-spacing:0px;word-spacing:0px;fill:#000000;fill-opacity:1;stroke:none"
       x="225.95927"
       y="-5.3350682"
       id="text4069"
       sodipodi:linespacing="125%"><tspan
         sodipodi:role="line"
         x="225.95927"
         y="-5.3350682"
         style="font-style:normal;font-variant:normal;font-weight:bold;font-stretch:normal;font-family:'Garoa Hacker Clube';-inkscape-font-specification:'Garoa Hacker Clube Bold';text-align:center;text-anchor:middle"
         id="tspan3358">YouTube</tspan></text>
    <rect
       style="fill:#cccccc;fill-opacity:0.61783441;stroke:none"
       id="rect3408"
       width="451.55557"
       height="50.492134"
       x="-1.4210855e-14"
       y="246.50787"
       rx="7.560121e-06"
       ry="7.5601215e-06" />
    <flowRoot
       xml:space="preserve"
       id="flowRoot3594"
       style="fill:black;stroke:none;stroke-opacity:1;stroke-width:1px;stroke-linejoin:miter;stroke-linecap:butt;fill-opacity:1;font-family:FreeMono;font-style:normal;font-weight:normal;font-size:48px;line-height:125%;letter-spacing:0px;word-spacing:0px;-inkscape-font-specification:FreeMono;font-stretch:normal;font-variant:normal"><flowRegion
         id="flowRegion3596"><rect
           id="rect3598"
           width="641.45453"
           height="436.36365"
           x="661.09094"
           y="525.81818" /></flowRegion><flowPara
         id="flowPara3600" /></flowRoot>    <text
       sodipodi:linespacing="125%"
       id="text3783"
       y="280.37643"
       x="225.95927"
       style="font-style:normal;font-variant:normal;font-weight:normal;font-stretch:normal;font-size:23.66460037px;line-height:125%;font-family:FreeMono;-inkscape-font-specification:FreeMono;letter-spacing:0px;word-spacing:0px;fill:#000000;fill-opacity:1;stroke:none"
       xml:space="preserve"><tspan
         id="tspan3785"
         style="font-style:normal;font-variant:normal;font-weight:bold;font-stretch:normal;font-family:monospace;-inkscape-font-specification:'monospace Bold';text-align:center;text-anchor:middle;fill:#800000"
         y="280.37643"
         x="225.95927"
         sodipodi:role="line">Como escolher uma licença</tspan></text>
    <g
       transform="matrix(0.44831575,0,0,-0.44831575,25.549609,180.32629)"
       inkscape:label="YouTube-logo-full_color"
       id="g2993">
      <g
         transform="matrix(0.38283196,0,0,0.38283196,47.023108,-49.262304)"
         id="g2995">
        <g
           id="g2997">
          <g
             clip-path="url(#clipPath3001)"
             id="g2999">
            <g
               clip-path="url(#clipPath3007)"
               id="g3005">
              <path
                 inkscape:connector-curvature="0"
                 id="path3017"
                 style="fill:url(#linearGradient3011);fill-opacity:1;fill-rule:nonzero;stroke:none"
                 d="m 1385,0 v 1 h -60 v 1 h -50 v 1 h -42 v 1 h -37 v 1 h -31 v 1 h -28 v 1 h -24 v 1 h -20 v 1 h -18 v 1 h -15 v 1 h -12 v 1 h -9 v 1 h -8 v 1 h -8 v 1 h -8 v 1 h -7 v 1 h -6 v 1 h -6 v 1 h -5 v 1 h -4 v 1 h -5 v 1 h -4 v 1 h -3 v 1 h -4 v 1 h -3 v 1 h -2 v 1 h -3 v 1 h -3 v 1 h -2 v 1 h -3 v 1 h -2 v 1 h -2 v 1 h -3 v 1 h -2 v 1 h -2 v 1 h -2 v 1 h -1 v 1 h -2 v 1 h -2 v 1 h -2 v 1 h -1 v 1 h -2 v 1 h -1 v 1 h -2 v 1 h -1 v 1 h -2 v 1 h -1 v 1 h -2 v 1 h -1 v 1 h -1 v 1 h -1 v 1 h -2 v 1 h -1 v 1 h -1 v 1 h -1 v 1 h -1 v 1 h -2 v 1 h -1 v 1 h -1 v 1 h -1 v 1 h -1 v 1 h -1 v 1 h -1 v 1 h -1 v 1 h -1 v 1 h -1 v 1 h -1 v 2 h -1 v 1 h -1 v 1 h -1 v 1 h -1 v 1 h -1 v 2 h -1 v 1 h -1 v 1 h -1 v 2 h -1 v 1 h -1 v 2 h -1 v 1 h -1 v 2 h -1 v 2 h -1 v 1 h -1 v 2 h -1 v 2 h -1 v 2 h -1 v 2 h -1 v 2 h -1 v 2 h -1 v 2 h -1 v 2 h -1 v 2 h -1 v 2 h -1 v 3 h -1 v 2 h -1 v 3 h -1 v 2 h -1 v 3 h -1 v 3 h -1 v 3 h -1 v 3 h -1 v 3 h -1 v 3 h -1 v 3 h -1 v 3 h -1 v 4 h -1 v 4 h -1 v 4 h -1 v 3 h -1 v 5 h -1 v 4 h -1 v 5 h -1 v 5 h -1 v 5 h -1 v 6 h -1 v 8 h -1 v 9 h -1 v 10 h -1 v 10 h -1 v 11 h -1 v 11 h -1 v 12 h -1 v 13 h -1 v 15 h -1 v 16 h -1 v 20 h -1 v 27 h -1 v 174 h 1 v 26 h 1 v 20 h 1 v 17 h 1 v 14 h 1 v 13 h 1 v 13 h 1 v 11 h 1 v 11 h 1 v 10 h 1 v 9 h 1 v 10 h 1 v 8 h 1 v 6 h 1 v 5 h 1 v 5 h 1 v 5 h 1 v 4 h 1 v 4 h 1 v 4 h 1 v 4 h 1 v 4 h 1 v 3 h 1 v 3 h 1 v 4 h 1 v 3 h 1 v 3 h 1 v 3 h 1 v 3 h 1 v 3 h 1 v 2 h 1 v 3 h 1 v 2 h 1 v 3 h 1 v 2 h 1 v 2 h 1 v 3 h 1 v 2 h 1 v 2 h 1 v 2 h 1 v 2 h 1 v 2 h 1 v 2 h 1 v 2 h 1 v 1 h 1 v 2 h 1 v 2 h 1 v 1 h 1 v 2 h 1 v 1 h 1 v 2 h 1 v 1 h 1 v 2 h 1 v 1 h 1 v 1 h 1 v 2 h 1 v 1 h 1 v 1 h 1 v 1 h 1 v 1 h 1 v 1 h 1 v 1 h 1 v 1 h 1 v 1 h 1 v 1 h 1 v 1 h 1 v 1 h 1 v 1 h 1 v 1 h 1 v 1 h 1 v 1 h 2 v 1 h 1 v 1 h 1 v 1 h 1 v 1 h 1 v 1 h 1 v 1 h 1 v 1 h 1 v 1 h 2 v 1 h 1 v 1 h 1 v 1 h 2 v 1 h 1 v 1 h 2 v 1 h 1 v 1 h 2 v 1 h 1 v 1 h 2 v 1 h 1 v 1 h 2 v 1 h 1 v 1 h 2 v 1 h 2 v 1 h 2 v 1 h 2 v 1 h 2 v 1 h 2 v 1 h 2 v 1 h 2 v 1 h 3 v 1 h 2 v 1 h 3 v 1 h 3 v 1 h 3 v 1 h 2 v 1 h 4 v 1 h 4 v 1 h 4 v 1 h 4 v 1 h 4 v 1 h 6 v 1 h 6 v 1 h 9 v 1 h 9 v 1 h 12 v 1 h 15 v 1 h 16 v 1 h 18 v 1 h 19 v 1 h 22 v 1 h 24 v 1 h 26 v 1 h 30 v 1 h 35 v 1 h 43 v 1 h 55 v 1 h 255 v -1 h 55 v -1 h 43 v -1 h 35 v -1 h 30 v -1 h 26 v -1 h 24 v -1 h 22 v -1 h 19 v -1 h 18 v -1 h 16 v -1 h 15 v -1 h 12 v -1 h 9 v -1 h 9 v -1 h 6 v -1 h 6 v -1 h 4 v -1 h 4 v -1 h 4 v -1 h 4 v -1 h 4 v -1 h 2 v -1 h 3 v -1 h 3 v -1 h 3 v -1 h 2 v -1 h 3 v -1 h 2 v -1 h 2 v -1 h 2 v -1 h 2 v -1 h 2 v -1 h 2 v -1 h 2 v -1 h 2 v -1 h 1 v -1 h 2 v -1 h 1 v -1 h 2 v -1 h 1 v -1 h 2 v -1 h 1 v -1 h 2 v -1 h 1 v -1 h 2 v -1 h 1 v -1 h 1 v -1 h 2 v -1 h 1 v -1 h 1 v -1 h 1 v -1 h 1 v -1 h 1 v -1 h 1 v -1 h 1 v -1 h 2 v -1 h 1 v -1 h 1 v -1 h 1 v -1 h 1 v -1 h 1 v -1 h 1 v -1 h 1 v -1 h 1 v -1 h 1 v -1 h 1 v -1 h 1 v -1 h 1 v -1 h 1 v -1 h 1 v -1 h 1 v -2 h 1 v -1 h 1 v -2 h 1 v -1 h 1 v -1 h 1 v -2 h 1 v -1 h 1 v -2 h 1 v -1 h 1 v -2 h 1 v -2 h 1 v -1 h 1 v -2 h 1 v -2 h 1 v -2 h 1 v -2 h 1 v -2 h 1 v -2 h 1 v -2 h 1 v -3 h 1 v -2 h 1 v -2 h 1 v -3 h 1 v -2 h 1 v -3 h 1 v -2 h 1 v -3 h 1 v -3 h 1 v -3 h 1 v -3 h 1 v -3 h 1 v -4 h 1 v -3 h 1 v -3 h 1 v -4 h 1 v -4 h 1 v -4 h 1 v -4 h 1 v -4 h 1 v -5 h 1 v -5 h 1 v -5 h 1 v -6 h 1 v -8 h 1 v -9 h 1 v -10 h 1 v -10 h 1 v -11 h 1 v -11 h 1 v -13 h 1 v -13 h 1 v -15 h 1 v -16 h 1 v -20 h 1 v -26 h 1 V 349 h -1 v -27 h -1 v -19 h -1 v -17 h -1 v -14 h -1 v -14 h -1 v -12 h -1 v -11 h -1 v -11 h -1 v -10 h -1 v -10 h -1 v -9 h -1 v -8 h -1 v -6 h -1 v -5 h -1 v -5 h -1 v -5 h -1 v -4 h -1 v -5 h -1 v -3 h -1 v -4 h -1 v -4 h -1 v -4 h -1 v -3 h -1 v -3 h -1 v -3 h -1 v -3 h -1 v -3 h -1 v -3 h -1 v -3 h -1 v -3 h -1 v -2 h -1 v -3 h -1 v -2 h -1 v -3 h -1 v -2 h -1 v -2 h -1 v -2 h -1 v -2 h -1 v -2 h -1 v -2 h -1 v -2 h -1 v -2 h -1 v -2 h -1 v -2 h -1 v -1 h -1 v -2 h -1 v -2 h -1 v -1 h -1 v -2 h -1 v -1 h -1 v -2 h -1 v -1 h -1 v -1 h -1 v -2 h -1 v -1 h -1 v -1 h -1 v -1 h -1 v -1 h -1 v -2 h -1 v -1 h -1 v -1 h -1 v -1 h -1 v -1 h -1 v -1 h -2 v -1 h -1 v -1 h -1 v -1 h -1 v -1 h -1 v -1 h -1 v -1 h -1 v -1 h -1 v -1 h -1 v -1 h -1 v -1 h -2 v -1 h -1 v -1 h -1 v -1 h -1 v -1 h -1 v -1 h -2 v -1 h -1 v -1 h -2 v -1 h -1 v -1 h -2 v -1 h -1 v -1 h -2 v -1 h -1 v -1 h -2 v -1 h -1 v -1 h -1 v -1 h -2 v -1 h -2 v -1 h -2 v -1 h -2 v -1 h -2 v -1 h -2 v -1 h -2 v -1 h -2 v -1 h -2 v -1 h -3 v -1 h -3 v -1 h -3 v -1 h -2 v -1 h -3 v -1 h -3 v -1 h -4 v -1 h -4 v -1 h -4 v -1 h -4 v -1 h -6 v -1 h -6 v -1 h -7 v -1 h -9 v -1 h -10 v -1 h -14 v -1 h -16 v -1 h -17 V 9 h -18 V 8 h -21 V 7 h -21 V 6 h -25 V 5 h -28 V 4 h -31 V 3 h -37 V 2 h -44 V 1 h -57 V 0" />
            </g>
          </g>
        </g>
        <path
           inkscape:connector-curvature="0"
           id="path3019"
           style="fill:#100f0d;fill-opacity:1;fill-rule:nonzero;stroke:none"
           d="M 779.168,166.172 H 700 v 45.832 c -30.012,-34.399 -55.453,-51.774 -83.187,-51.774 -24.333,0 -41.231,11.477 -49.692,32.215 -5.141,12.614 -8.789,32.301 -8.789,61.227 V 587.004 H 637.5 v -312.5 c 0,-17.676 0,-25 0,-29.168 1.848,-11.695 6.813,-15.965 16.879,-15.965 15.156,0 28.867,13.168 45.621,36.801 v 320.832 h 79.168 V 166.172" />
        <path
           inkscape:connector-curvature="0"
           id="path3021"
           style="fill:#100f0d;fill-opacity:1;fill-rule:nonzero;stroke:none"
           d="m 420.832,291.172 c 4.168,-41.668 -8.754,-62.344 -33.34,-62.344 -24.582,0 -37.492,20.676 -33.324,62.344 v 166.664 c -4.168,41.668 8.75,61.195 33.332,61.195 24.582,0 37.543,-19.527 33.375,-61.195 z M 500,449.504 c 0,44.973 -9.035,78.742 -25,100 -21.09,28.781 -54.168,40.566 -87.5,40.566 -37.73,0 -66.441,-11.785 -87.5,-40.566 -16.223,-21.258 -24.922,-55.395 -24.922,-100.367 L 275,299.504 c 0,-44.719 7.738,-75.621 23.961,-96.672 21.059,-28.695 55.207,-43.898 88.539,-43.898 33.332,0 68.078,15.203 89.168,43.898 15.965,21.051 23.332,51.953 23.332,96.672 v 150" />
        <path
           inkscape:connector-curvature="0"
           id="path3023"
           style="fill:#100f0d;fill-opacity:1;fill-rule:nonzero;stroke:none"
           d="M 187.5,395.336 V 166.172 h -83.332 v 229.164 c 0,0 -86.3555,280.965 -104.168,333.332 h 87.5 l 58.477,-219.48 58.191,219.48 h 87.5 L 187.5,395.336" />
        <path
           inkscape:connector-curvature="0"
           id="path3025"
           style="fill:#ffffff;fill-opacity:1;fill-rule:nonzero;stroke:none"
           d="m 1833.33,470.508 c 0,38.941 10.68,49.562 35.87,49.562 25.01,0 34.97,-11.57 34.97,-50.082 v -45.484 l -70.84,-0.078 z m 150.15,-108.504 -0.02,85.18 c 0,44.5 -8.76,77.05 -24.53,98.113 -21.14,28.492 -51.18,43.57 -89.03,43.57 -38.51,0 -68.54,-15.078 -90.36,-43.57 -16.02,-21.063 -25.37,-55.461 -25.37,-99.961 V 299.504 c 0,-44.246 10.28,-75.219 26.3,-96.055 21.81,-28.449 51.85,-42.648 91.31,-42.648 39.41,0 70.36,14.898 91.23,45.133 9.17,13.343 15.1,28.476 17.64,45.195 0.68,7.555 2.68,24.758 2.68,49.066 v 11.809 h -79.16 c 0,-30.266 0.13,-48.258 -0.56,-52.371 -4.31,-20.16 -15.13,-30.262 -33.71,-30.262 -25.89,0 -36.83,19.359 -36.57,57.809 v 74.824 h 150.15" />
        <path
           inkscape:connector-curvature="0"
           id="path3027"
           style="fill:#ffffff;fill-opacity:1;fill-rule:nonzero;stroke:none"
           d="m 1625,287.004 c 0,-41.668 -9.82,-57.633 -31.57,-57.633 -12.43,0 -26.73,6.391 -39.35,19.004 l 0.09,252.691 c 12.61,12.45 26.83,19.004 39.26,19.004 21.75,0 31.57,-12.234 31.57,-53.902 z m 8.78,302.516 c -27.75,0 -55.33,-17.067 -79.7,-47.047 l 0.09,182.031 h -75 V 166.172 h 75 l 0.1,41.949 c 25.21,-31.183 52.69,-47.32 79.51,-47.32 30.04,0 51.99,16.078 62.05,47.035 5.04,17.652 8.34,44.828 8.34,83.336 v 166.664 c 0,39.437 -5.06,66.398 -10.1,83.148 -10.06,31.184 -30.25,48.536 -60.29,48.536" />
        <path
           inkscape:connector-curvature="0"
           id="path3029"
           style="fill:#ffffff;fill-opacity:1;fill-rule:nonzero;stroke:none"
           d="m 1416.67,166.172 h -79.17 v 45.832 c -30.01,-34.399 -55.45,-51.774 -83.19,-51.774 -24.33,0 -41.23,11.477 -49.69,32.215 -5.14,12.614 -8.79,32.301 -8.79,61.227 V 582.836 H 1275 V 274.504 c 0,-17.676 0,-25 0,-29.168 1.85,-11.695 6.81,-15.965 16.88,-15.965 15.16,0 28.87,13.168 45.62,36.801 v 316.664 h 79.17 V 166.172" />
        <path
           inkscape:connector-curvature="0"
           id="path3031"
           style="fill:#ffffff;fill-opacity:1;fill-rule:nonzero;stroke:none"
           d="m 1116.67,166.172 h -83.34 v 479.164 h -87.498 v 79.078 l 262.498,0.09 v -79.168 h -91.66 V 166.172" />
      </g>
    </g>
  </g>
</svg>
